<svg xmlns="http://www.w3.org/2000/svg" width="595.5" viewBox="0 0 595.5 842.25" height="842.25" version="1.0"><defs><clipPath id="a"><path d="M 99.523438 176.09375 L 366.695312 176.09375 L 366.695312 325.167969 L 99.523438 325.167969 Z M 99.523438 176.09375"/></clipPath><clipPath id="b"><path d="M 1.15625 216.59375 L 594.984375 216.59375 L 594.984375 381.558594 L 1.15625 381.558594 Z M 1.15625 216.59375"/></clipPath><clipPath id="c"><path d="M 1.15625 295 L 594.984375 295 L 594.984375 393 L 1.15625 393 Z M 1.15625 295"/></clipPath><clipPath id="d"><path d="M 1.15625 285 L 237.652344 285 L 237.652344 384.523438 L 1.15625 384.523438 Z M 1.15625 285"/></clipPath><clipPath id="e"><path d="M 1.15625 324 L 124.964844 324 L 124.964844 377 L 1.15625 377 Z M 1.15625 324"/></clipPath><clipPath id="f"><path d="M 434 355 L 546 355 L 546 433.429688 L 434 433.429688 Z M 434 355"/></clipPath><clipPath id="g"><path d="M 1.15625 296 L 594.984375 296 L 594.984375 393 L 1.15625 393 Z M 1.15625 296"/></clipPath></defs><g clip-path="url(#a)"><path fill="#EE3EC9" d="M 366.695312 309.679688 C 366.695312 311.863281 366.644531 314.050781 366.535156 316.234375 C 366.429688 318.417969 366.269531 320.597656 366.054688 322.773438 C 365.839844 324.949219 365.570312 327.117188 365.25 329.28125 C 364.929688 331.441406 364.554688 333.597656 364.128906 335.738281 C 363.703125 337.882812 363.226562 340.015625 362.695312 342.136719 C 362.164062 344.257812 361.578125 346.363281 360.945312 348.457031 C 360.308594 350.550781 359.625 352.625 358.886719 354.683594 C 358.152344 356.742188 357.363281 358.78125 356.527344 360.800781 C 355.691406 362.820312 354.804688 364.816406 353.871094 366.792969 C 352.9375 368.769531 351.953125 370.722656 350.921875 372.652344 C 349.894531 374.578125 348.816406 376.480469 347.691406 378.355469 C 346.566406 380.230469 345.398438 382.078125 344.183594 383.894531 C 342.96875 385.714844 341.710938 387.5 340.40625 389.257812 C 339.105469 391.011719 337.761719 392.734375 336.375 394.425781 C 334.988281 396.113281 333.558594 397.769531 332.089844 399.390625 C 330.625 401.007812 329.117188 402.59375 327.570312 404.136719 C 326.023438 405.683594 324.441406 407.191406 322.820312 408.660156 C 321.203125 410.128906 319.546875 411.554688 317.855469 412.941406 C 316.167969 414.328125 314.445312 415.675781 312.6875 416.976562 C 310.933594 418.277344 309.144531 419.535156 307.328125 420.75 C 305.507812 421.964844 303.664062 423.136719 301.789062 424.257812 C 299.914062 425.382812 298.011719 426.460938 296.082031 427.492188 C 294.15625 428.523438 292.203125 429.503906 290.226562 430.4375 C 288.25 431.375 286.25 432.261719 284.230469 433.097656 C 282.210938 433.933594 280.171875 434.71875 278.113281 435.457031 C 276.054688 436.191406 273.980469 436.878906 271.886719 437.511719 C 269.796875 438.148438 267.691406 438.730469 265.570312 439.261719 C 263.449219 439.792969 261.316406 440.273438 259.171875 440.699219 C 257.027344 441.125 254.875 441.5 252.710938 441.820312 C 250.550781 442.140625 248.378906 442.40625 246.203125 442.621094 C 244.027344 442.835938 241.847656 442.996094 239.664062 443.105469 C 237.480469 443.210938 235.296875 443.265625 233.109375 443.265625 C 230.925781 443.265625 228.738281 443.210938 226.554688 443.105469 C 224.371094 442.996094 222.191406 442.835938 220.015625 442.621094 C 217.839844 442.40625 215.671875 442.140625 213.507812 441.820312 C 211.347656 441.5 209.191406 441.125 207.050781 440.699219 C 204.90625 440.273438 202.773438 439.792969 200.652344 439.261719 C 198.53125 438.730469 196.425781 438.148438 194.332031 437.511719 C 192.242188 436.878906 190.164062 436.191406 188.105469 435.457031 C 186.046875 434.71875 184.007812 433.933594 181.988281 433.097656 C 179.96875 432.261719 177.972656 431.375 175.996094 430.4375 C 174.019531 429.503906 172.066406 428.523438 170.136719 427.492188 C 168.210938 426.460938 166.308594 425.382812 164.433594 424.257812 C 162.558594 423.136719 160.710938 421.964844 158.894531 420.75 C 157.074219 419.535156 155.289062 418.277344 153.53125 416.976562 C 151.777344 415.675781 150.054688 414.328125 148.363281 412.941406 C 146.675781 411.554688 145.019531 410.128906 143.398438 408.660156 C 141.78125 407.191406 140.195312 405.683594 138.652344 404.136719 C 137.105469 402.59375 135.597656 401.007812 134.128906 399.390625 C 132.660156 397.769531 131.234375 396.113281 129.847656 394.425781 C 128.460938 392.734375 127.113281 391.011719 125.8125 389.257812 C 124.511719 387.5 123.253906 385.714844 122.039062 383.894531 C 120.824219 382.078125 119.652344 380.230469 118.53125 378.355469 C 117.40625 376.480469 116.328125 374.578125 115.296875 372.652344 C 114.265625 370.722656 113.285156 368.769531 112.351562 366.792969 C 111.414062 364.816406 110.53125 362.820312 109.691406 360.800781 C 108.855469 358.78125 108.070312 356.742188 107.332031 354.683594 C 106.597656 352.625 105.910156 350.550781 105.277344 348.457031 C 104.640625 346.363281 104.058594 344.257812 103.527344 342.136719 C 102.996094 340.015625 102.515625 337.882812 102.089844 335.738281 C 101.664062 333.597656 101.289062 331.441406 100.96875 329.28125 C 100.648438 327.117188 100.382812 324.949219 100.167969 322.773438 C 99.953125 320.597656 99.792969 318.417969 99.683594 316.234375 C 99.578125 314.050781 99.523438 311.863281 99.523438 309.679688 C 99.523438 307.492188 99.578125 305.308594 99.683594 303.125 C 99.792969 300.941406 99.953125 298.761719 100.167969 296.585938 C 100.382812 294.410156 100.648438 292.238281 100.96875 290.078125 C 101.289062 287.914062 101.664062 285.761719 102.089844 283.617188 C 102.515625 281.472656 102.996094 279.339844 103.527344 277.21875 C 104.058594 275.097656 104.640625 272.992188 105.277344 270.902344 C 105.910156 268.808594 106.597656 266.734375 107.332031 264.675781 C 108.070312 262.617188 108.855469 260.578125 109.691406 258.558594 C 110.53125 256.539062 111.414062 254.539062 112.351562 252.5625 C 113.285156 250.585938 114.265625 248.632812 115.296875 246.707031 C 116.328125 244.777344 117.40625 242.875 118.53125 241 C 119.652344 239.125 120.824219 237.28125 122.039062 235.460938 C 123.253906 233.644531 124.511719 231.855469 125.8125 230.101562 C 127.113281 228.34375 128.460938 226.621094 129.847656 224.933594 C 131.234375 223.242188 132.660156 221.585938 134.128906 219.96875 C 135.597656 218.347656 137.105469 216.765625 138.652344 215.21875 C 140.195312 213.671875 141.78125 212.164062 143.398438 210.699219 C 145.019531 209.230469 146.675781 207.800781 148.363281 206.414062 C 150.054688 205.027344 151.777344 203.683594 153.53125 202.382812 C 155.289062 201.078125 157.074219 199.820312 158.894531 198.605469 C 160.710938 197.390625 162.558594 196.222656 164.433594 195.097656 C 166.308594 193.972656 168.210938 192.898438 170.136719 191.867188 C 172.066406 190.835938 174.019531 189.851562 175.996094 188.917969 C 177.972656 187.984375 179.96875 187.097656 181.988281 186.261719 C 184.007812 185.425781 186.046875 184.636719 188.105469 183.902344 C 190.164062 183.164062 192.242188 182.480469 194.332031 181.84375 C 196.425781 181.210938 198.53125 180.625 200.652344 180.09375 C 202.773438 179.5625 204.90625 179.085938 207.050781 178.660156 C 209.191406 178.234375 211.347656 177.859375 213.507812 177.539062 C 215.671875 177.21875 217.839844 176.949219 220.015625 176.734375 C 222.191406 176.519531 224.371094 176.359375 226.554688 176.253906 C 228.738281 176.144531 230.925781 176.09375 233.109375 176.09375 C 235.296875 176.09375 237.480469 176.144531 239.664062 176.253906 C 241.847656 176.359375 244.027344 176.519531 246.203125 176.734375 C 248.378906 176.949219 250.550781 177.21875 252.710938 177.539062 C 254.875 177.859375 257.027344 178.234375 259.171875 178.660156 C 261.316406 179.085938 263.449219 179.5625 265.570312 180.09375 C 267.691406 180.625 269.796875 181.210938 271.886719 181.84375 C 273.980469 182.480469 276.054688 183.164062 278.113281 183.902344 C 280.171875 184.636719 282.210938 185.425781 284.230469 186.261719 C 286.25 187.097656 288.25 187.984375 290.226562 188.917969 C 292.203125 189.851562 294.15625 190.835938 296.082031 191.867188 C 298.011719 192.898438 299.914062 193.972656 301.789062 195.097656 C 303.664062 196.222656 305.507812 197.390625 307.328125 198.605469 C 309.144531 199.820312 310.933594 201.078125 312.6875 202.382812 C 314.445312 203.683594 316.167969 205.027344 317.855469 206.414062 C 319.546875 207.800781 321.203125 209.230469 322.820312 210.699219 C 324.441406 212.164062 326.023438 213.671875 327.570312 215.21875 C 329.117188 216.765625 330.625 218.347656 332.089844 219.96875 C 333.558594 221.585938 334.988281 223.242188 336.375 224.933594 C 337.761719 226.621094 339.105469 228.34375 340.40625 230.101562 C 341.710938 231.855469 342.96875 233.644531 344.183594 235.460938 C 345.398438 237.28125 346.566406 239.125 347.691406 241 C 348.816406 242.875 349.894531 244.777344 350.921875 246.707031 C 351.953125 248.632812 352.9375 250.585938 353.871094 252.5625 C 354.804688 254.539062 355.691406 256.539062 356.527344 258.558594 C 357.363281 260.578125 358.152344 262.617188 358.886719 264.675781 C 359.625 266.734375 360.308594 268.808594 360.945312 270.902344 C 361.578125 272.992188 362.164062 275.097656 362.695312 277.21875 C 363.226562 279.339844 363.703125 281.472656 364.128906 283.617188 C 364.554688 285.761719 364.929688 287.914062 365.25 290.078125 C 365.570312 292.238281 365.839844 294.410156 366.054688 296.585938 C 366.269531 298.761719 366.429688 300.941406 366.535156 303.125 C 366.644531 305.308594 366.695312 307.492188 366.695312 309.679688 Z M 366.695312 309.679688"/></g><g clip-path="url(#b)"><path fill="#4C0BD1" d="M 132.675781 381.078125 C 231.574219 381.078125 315.199219 273.785156 349.300781 283.566406 C 365.539062 288.160156 373.679688 282.011719 380.886719 275.875 C 390.835938 267.367188 398.960938 258.863281 424.179688 278.824219 C 448.054688 297.714844 462.171875 274.4375 478.285156 251.171875 C 491.496094 232.097656 506.046875 213.023438 528.421875 217.15625 C 578.09375 226.359375 594.992188 324.46875 594.992188 324.46875 L 1.15625 324.46875 C 1.15625 324.46875 63.726562 381.078125 132.675781 381.078125"/></g><g clip-path="url(#c)"><path fill="#E43397" d="M 21.914062 338.394531 C 68.472656 369.667969 130.449219 365.070312 171.820312 327.28125 C 172.855469 326.242188 174.042969 325.351562 175.082031 324.46875 L 1.15625 324.46875 L 21.914062 338.394531 M 366.058594 357.070312 C 406.386719 397.230469 469.109375 404.199219 517.148438 373.820312 L 594.992188 324.46875 L 332.695312 324.46875 C 335.066406 326.539062 337.589844 328.761719 339.8125 330.984375 L 366.058594 357.070312 M 175.082031 324.46875 L 332.695312 324.46875 C 287.621094 286.078125 220.75 285.78125 175.082031 324.46875"/></g><g clip-path="url(#d)"><path fill="#00C4CC" d="M 208.796875 285.050781 C 217.933594 285.050781 227.363281 288.394531 237.058594 296.308594 L 237.503906 296.671875 C 215.128906 299.699219 193.40625 308.945312 175.082031 324.46875 L 150.023438 324.46875 C 167.769531 303.300781 187.476562 285.035156 208.796875 285.050781 M 1.15625 324.46875 C 1.15625 324.46875 44.628906 363.796875 99.03125 376.894531 C 90.402344 382.121094 82.023438 384.308594 74.015625 384.308594 C 32.261719 384.308594 1.15625 324.46875 1.15625 324.46875"/></g><g clip-path="url(#e)"><path fill="#7900FF" d="M 1.15625 324.46875 L 21.914062 338.394531 C 42.554688 352.253906 66.21875 359.074219 89.777344 359.074219 C 101.597656 359.074219 113.398438 357.355469 124.773438 353.949219 C 116.660156 362.804688 108.699219 370.53125 101.535156 375.300781 C 100.707031 375.855469 99.863281 376.390625 99.03125 376.894531 C 44.628906 363.796875 1.15625 324.46875 1.15625 324.46875"/></g><path fill="#00C4CC" d="M 271.371094 324.46875 L 332.695312 324.46875 C 335.066406 326.539062 337.589844 328.761719 339.8125 330.984375 L 366.058594 357.070312 C 372.019531 363.011719 378.46875 368.222656 385.289062 372.695312 C 385.214844 372.726562 385.125 372.753906 385.035156 372.777344 C 375.441406 375.898438 366.621094 377.316406 358.347656 377.316406 C 324.601562 377.316406 300.0625 353.671875 269.886719 325.492188 C 270.375 325.148438 270.878906 324.808594 271.371094 324.46875"/><path fill="#7900FF" d="M 268.789062 324.46875 L 271.371094 324.46875 C 270.878906 324.808594 270.375 325.148438 269.886719 325.492188 C 269.515625 325.148438 269.160156 324.808594 268.789062 324.46875"/><g clip-path="url(#f)"><path fill="#00C4CC" d="M 545.984375 355.53125 C 525.644531 386.152344 514.078125 428.949219 482.304688 433.101562 C 480.53125 433.328125 478.847656 433.4375 477.230469 433.4375 C 457.695312 433.4375 449.140625 417.511719 440.34375 401.585938 C 438.429688 398.121094 436.515625 394.65625 434.457031 391.347656 C 440.328125 392.210938 446.242188 392.640625 452.179688 392.640625 C 474.59375 392.640625 497.144531 386.46875 517.148438 373.820312 L 545.984375 355.53125"/></g><g clip-path="url(#g)"><path fill="#CB88FF" d="M 237.503906 296.671875 C 248.890625 306.039062 259.121094 315.539062 268.789062 324.46875 L 175.082031 324.46875 C 193.40625 308.945312 215.128906 299.699219 237.503906 296.671875 M 1.15625 324.46875 L 150.023438 324.46875 C 141.972656 334.109375 133.296875 344.652344 124.773438 353.949219 C 113.398438 357.355469 101.597656 359.074219 89.777344 359.074219 C 66.21875 359.074219 42.554688 352.253906 21.914062 338.394531 L 1.15625 324.46875 M 268.789062 324.46875 L 332.695312 324.46875 L 268.789062 324.46875 M 332.695312 324.46875 L 594.992188 324.46875 C 572.15625 324.46875 557.632812 338 545.984375 355.53125 L 517.148438 373.820312 C 497.144531 386.46875 474.59375 392.640625 452.179688 392.640625 C 446.242188 392.640625 440.328125 392.210938 434.457031 391.347656 C 427.101562 379.480469 418.101562 369.738281 402.101562 369.738281 C 397.210938 369.738281 391.648438 370.652344 385.289062 372.695312 C 378.46875 368.222656 372.019531 363.011719 366.058594 357.070312 L 339.8125 330.984375 C 337.589844 328.761719 335.066406 326.539062 332.695312 324.46875"/></g><g fill="#00C4CC"><g><g><path d="M 62.6875 0 L 48.9375 0 L 20.75 -37.734375 L 20.75 0 L 6.125 0 L 6.125 -61.28125 L 19.875 -61.28125 L 48.15625 -23.46875 L 48.15625 -61.28125 L 62.6875 -61.28125 Z M 62.6875 0" transform="translate(127.357 520.18)"/></g></g></g><g fill="#00C4CC"><g><g><path d="M 27.921875 -47.71875 C 35.628906 -47.71875 41.847656 -45.515625 46.578125 -41.109375 C 51.304688 -36.703125 53.671875 -30.878906 53.671875 -23.640625 C 53.671875 -16.398438 51.304688 -10.5625 46.578125 -6.125 C 41.847656 -1.6875 35.628906 0.53125 27.921875 0.53125 C 20.160156 0.53125 13.914062 -1.6875 9.1875 -6.125 C 4.457031 -10.5625 2.09375 -16.398438 2.09375 -23.640625 C 2.09375 -30.878906 4.457031 -36.703125 9.1875 -41.109375 C 13.914062 -45.515625 20.160156 -47.71875 27.921875 -47.71875 Z M 27.921875 -35.71875 C 24.773438 -35.71875 22.222656 -34.578125 20.265625 -32.296875 C 18.304688 -30.023438 17.328125 -27.082031 17.328125 -23.46875 C 17.328125 -19.789062 18.304688 -16.828125 20.265625 -14.578125 C 22.222656 -12.328125 24.773438 -11.203125 27.921875 -11.203125 C 31.015625 -11.203125 33.539062 -12.328125 35.5 -14.578125 C 37.457031 -16.828125 38.4375 -19.789062 38.4375 -23.46875 C 38.4375 -27.082031 37.457031 -30.023438 35.5 -32.296875 C 33.539062 -34.578125 31.015625 -35.71875 27.921875 -35.71875 Z M 27.921875 -35.71875" transform="translate(196.167 520.18)"/></g></g></g><g fill="#00C4CC"><g><g><path d="M 69.078125 -47.890625 C 74.265625 -47.890625 78.390625 -46.238281 81.453125 -42.9375 C 84.523438 -39.644531 86.0625 -35.253906 86.0625 -29.765625 L 86.0625 0 L 71 0 L 71 -25.5625 C 71 -28.363281 70.269531 -30.566406 68.8125 -32.171875 C 67.351562 -33.773438 65.367188 -34.578125 62.859375 -34.578125 C 60.054688 -34.523438 57.820312 -33.460938 56.15625 -31.390625 C 54.5 -29.316406 53.671875 -26.644531 53.671875 -23.375 L 53.671875 0 L 38.515625 0 L 38.515625 -25.5625 C 38.515625 -28.363281 37.800781 -30.566406 36.375 -32.171875 C 34.945312 -33.773438 32.976562 -34.578125 30.46875 -34.578125 C 27.601562 -34.523438 25.320312 -33.445312 23.625 -31.34375 C 21.9375 -29.238281 21.09375 -26.582031 21.09375 -23.375 L 21.09375 0 L 6.046875 0 L 6.046875 -47.1875 L 21.09375 -47.1875 L 21.09375 -39.390625 C 24.300781 -44.941406 29.5 -47.773438 36.6875 -47.890625 C 40.476562 -47.890625 43.757812 -46.941406 46.53125 -45.046875 C 49.300781 -43.148438 51.269531 -40.535156 52.4375 -37.203125 C 55.53125 -44.210938 61.078125 -47.773438 69.078125 -47.890625 Z M 69.078125 -47.890625" transform="translate(251.932 520.18)"/></g></g></g><g fill="#00C4CC"><g><g><path d="M 22.9375 -47.890625 C 29.882812 -47.890625 36.363281 -46.109375 42.375 -42.546875 L 37.203125 -32.75 C 31.367188 -35.894531 26.410156 -37.46875 22.328125 -37.46875 C 19.234375 -37.46875 17.6875 -36.390625 17.6875 -34.234375 C 17.6875 -33.066406 18.53125 -32.085938 20.21875 -31.296875 C 21.914062 -30.503906 23.988281 -29.785156 26.4375 -29.140625 C 28.882812 -28.503906 31.316406 -27.703125 33.734375 -26.734375 C 36.160156 -25.773438 38.21875 -24.242188 39.90625 -22.140625 C 41.601562 -20.046875 42.453125 -17.476562 42.453125 -14.4375 C 42.453125 -9.71875 40.613281 -6.03125 36.9375 -3.375 C 33.257812 -0.71875 28.476562 0.609375 22.59375 0.609375 C 14.238281 0.609375 7.175781 -1.609375 1.40625 -6.046875 L 6.21875 -15.671875 C 11.757812 -11.765625 17.332031 -9.8125 22.9375 -9.8125 C 26.382812 -9.8125 28.109375 -10.890625 28.109375 -13.046875 C 28.109375 -14.273438 27.273438 -15.296875 25.609375 -16.109375 C 23.941406 -16.921875 21.910156 -17.648438 19.515625 -18.296875 C 17.128906 -18.941406 14.738281 -19.742188 12.34375 -20.703125 C 9.945312 -21.671875 7.914062 -23.175781 6.25 -25.21875 C 4.59375 -27.257812 3.765625 -29.828125 3.765625 -32.921875 C 3.765625 -37.648438 5.539062 -41.328125 9.09375 -43.953125 C 12.65625 -46.578125 17.269531 -47.890625 22.9375 -47.890625 Z M 22.9375 -47.890625" transform="translate(342.716 520.18)"/></g></g></g><g fill="#00C4CC"><g><g><path d="M 7.921875 -66.484375 C 9.410156 -67.972656 11.320312 -68.71875 13.65625 -68.71875 C 15.988281 -68.71875 17.898438 -67.972656 19.390625 -66.484375 C 20.878906 -65.003906 21.625 -63.09375 21.625 -60.75 C 21.625 -58.414062 20.878906 -56.488281 19.390625 -54.96875 C 17.898438 -53.457031 15.988281 -52.703125 13.65625 -52.703125 C 11.320312 -52.703125 9.410156 -53.457031 7.921875 -54.96875 C 6.429688 -56.488281 5.6875 -58.414062 5.6875 -60.75 C 5.6875 -63.09375 6.429688 -65.003906 7.921875 -66.484375 Z M 21.09375 0 L 6.046875 0 L 6.046875 -47.1875 L 21.09375 -47.1875 Z M 21.09375 0" transform="translate(387.626 520.18)"/></g></g></g><g fill="#00C4CC"><g><g><path d="M 26.609375 -33.625 L 35.015625 -47.1875 L 51.5625 -47.1875 L 36.59375 -24.25 L 52.609375 0 L 35.1875 0 L 26.609375 -14.796875 L 16.984375 0 L 0.34375 0 L 16.453125 -24.15625 L 1.40625 -47.1875 L 18.734375 -47.1875 Z M 26.609375 -33.625" transform="translate(414.852 520.18)"/></g></g></g><g fill="#00C4CC"><g><g><path d="M 6.125 -61.28125 L 32.828125 -61.28125 C 40.648438 -61.28125 46.71875 -59.425781 51.03125 -55.71875 C 55.351562 -52.019531 57.515625 -46.753906 57.515625 -39.921875 C 57.515625 -32.742188 55.351562 -27.171875 51.03125 -23.203125 C 46.71875 -19.234375 40.648438 -17.25 32.828125 -17.25 L 21.71875 -17.25 L 21.71875 0 L 6.125 0 Z M 21.71875 -49.03125 L 21.71875 -29.5 L 32.046875 -29.5 C 35.484375 -29.5 38.132812 -30.34375 40 -32.03125 C 41.875 -33.726562 42.8125 -36.179688 42.8125 -39.390625 C 42.8125 -42.546875 41.875 -44.941406 40 -46.578125 C 38.132812 -48.210938 35.484375 -49.03125 32.046875 -49.03125 Z M 21.71875 -49.03125" transform="translate(191.268 606.378)"/></g></g></g><g fill="#00C4CC"><g><g><path d="M 21.1875 -47.1875 L 21.1875 -39.21875 C 24.507812 -44.882812 29.613281 -47.773438 36.5 -47.890625 L 36.5 -34.234375 C 32.1875 -34.640625 28.65625 -33.921875 25.90625 -32.078125 C 23.164062 -30.242188 21.59375 -27.632812 21.1875 -24.25 L 21.1875 0 L 6.046875 0 L 6.046875 -47.1875 Z M 21.1875 -47.1875" transform="translate(250.798 606.378)"/></g></g></g><g fill="#00C4CC"><g><g><path d="M 27.921875 -47.71875 C 35.628906 -47.71875 41.847656 -45.515625 46.578125 -41.109375 C 51.304688 -36.703125 53.671875 -30.878906 53.671875 -23.640625 C 53.671875 -16.398438 51.304688 -10.5625 46.578125 -6.125 C 41.847656 -1.6875 35.628906 0.53125 27.921875 0.53125 C 20.160156 0.53125 13.914062 -1.6875 9.1875 -6.125 C 4.457031 -10.5625 2.09375 -16.398438 2.09375 -23.640625 C 2.09375 -30.878906 4.457031 -36.703125 9.1875 -41.109375 C 13.914062 -45.515625 20.160156 -47.71875 27.921875 -47.71875 Z M 27.921875 -35.71875 C 24.773438 -35.71875 22.222656 -34.578125 20.265625 -32.296875 C 18.304688 -30.023438 17.328125 -27.082031 17.328125 -23.46875 C 17.328125 -19.789062 18.304688 -16.828125 20.265625 -14.578125 C 22.222656 -12.328125 24.773438 -11.203125 27.921875 -11.203125 C 31.015625 -11.203125 33.539062 -12.328125 35.5 -14.578125 C 37.457031 -16.828125 38.4375 -19.789062 38.4375 -23.46875 C 38.4375 -27.082031 37.457031 -30.023438 35.5 -32.296875 C 33.539062 -34.578125 31.015625 -35.71875 27.921875 -35.71875 Z M 27.921875 -35.71875" transform="translate(288.179 606.378)"/></g></g></g><g fill="#00C4CC"><g><g><path d="M 53.578125 -64.953125 L 53.578125 0 L 38.4375 0 L 38.4375 -6.21875 C 34.988281 -1.664062 30.257812 0.609375 24.25 0.609375 C 17.59375 0.609375 12.25 -1.632812 8.21875 -6.125 C 4.195312 -10.625 2.1875 -16.519531 2.1875 -23.8125 C 2.1875 -31.050781 4.171875 -36.859375 8.140625 -41.234375 C 12.109375 -45.609375 17.363281 -47.796875 23.90625 -47.796875 C 30.144531 -47.796875 34.988281 -45.519531 38.4375 -40.96875 L 38.4375 -64.953125 Z M 20.3125 -14.53125 C 22.238281 -12.257812 24.773438 -11.125 27.921875 -11.125 C 31.078125 -11.125 33.617188 -12.257812 35.546875 -14.53125 C 37.472656 -16.8125 38.4375 -19.789062 38.4375 -23.46875 C 38.4375 -27.082031 37.472656 -30.023438 35.546875 -32.296875 C 33.617188 -34.578125 31.078125 -35.71875 27.921875 -35.71875 C 24.773438 -35.71875 22.238281 -34.59375 20.3125 -32.34375 C 18.382812 -30.101562 17.390625 -27.144531 17.328125 -23.46875 C 17.390625 -19.789062 18.382812 -16.8125 20.3125 -14.53125 Z M 20.3125 -14.53125" transform="translate(343.945 606.378)"/></g></g></g></svg>